<svg xmlns="http://www.w3.org/2000/svg" version="1.1" xmlns:xlink="http://www.w3.org/1999/xlink" xmlns:svgjs="http://svgjs.dev/svgjs" width="1000" height="1000"><style>
    #light-icon {
      display: inline;
    }
    #dark-icon {
      display: none;
    }

    @media (prefers-color-scheme: dark) {
      #light-icon {
        display: none;
      }
      #dark-icon {
        display: inline;
      }
    }
  </style><g id="light-icon"><svg xmlns="http://www.w3.org/2000/svg" version="1.1" xmlns:xlink="http://www.w3.org/1999/xlink" xmlns:svgjs="http://svgjs.dev/svgjs" width="1000" height="1000"><g clip-path="url(#SvgjsClipPath1168)"><rect width="1000" height="1000" fill="#9da693"></rect><g transform="matrix(9.25925925925926,0,0,9.25925925925926,0,0)"><svg xmlns="http://www.w3.org/2000/svg" version="1.1" xmlns:xlink="http://www.w3.org/1999/xlink" xmlns:svgjs="http://svgjs.dev/svgjs" width="108" height="108"><svg xmlns="http://www.w3.org/2000/svg" viewBox="0 0 108 108" id="vector">
    <defs>
        <clipPath id="clip_path">
            <path d="M 31 9 L 76.88 9 L 76.88 99 L 31 99 Z"></path>
        </clipPath>
        <clipPath id="clip_path_1">
            <path d="M 31 9 L 76.88 9 L 76.88 99 L 31 99 Z"></path>
        </clipPath>
        <clipPath id="clip_path_2">
            <path d="M 31 9 L 76.88 9 L 76.88 99 L 31 99 Z"></path>
        </clipPath>
        <clipPath id="clip_path_3">
            <path d="M 31 9 L 76.88 9 L 76.88 99 L 31 99 Z"></path>
        </clipPath>
        <clipPath id="clip_path_4">
            <path d="M 31 9 L 76.88 9 L 76.88 99 L 31 99 Z"></path>
        </clipPath>
    <clipPath id="SvgjsClipPath1168"><rect width="1000" height="1000" x="0" y="0" rx="500" ry="500"></rect></clipPath></defs>
    <g id="group_1" transform="translate(20.34 20.34) scale(0.62333333 0.62333333)">
        <g id="group">
            <path id="path" clip-path="url(#clip_path)" d="M 34.12 76.08 C 34.12 72.4 34.12 68.83 34.12 65.26 C 34.12 59.54 34.14 53.83 34.09 48.12 C 34.08 47.15 34.36 46.84 35.33 46.88 C 37.16 46.96 39 46.93 40.84 46.89 C 41.49 46.88 41.74 47.08 41.74 47.77 C 41.73 54.11 41.73 60.45 41.73 66.79 C 41.73 67.12 41.69 67.43 41.45 67.71 C 39.12 70.46 36.79 73.21 34.46 75.96 C 34.42 76.01 34.34 76.01 34.11 76.08 L 34.12 76.08 Z" fill="#e0e4d6"></path>
            <path id="path_1" clip-path="url(#clip_path_1)" d="M 76.87 83.43 C 76.86 82.91 76.77 82.46 76.39 82.03 C 71.73 76.67 67.07 71.3 62.45 65.9 C 61.75 65.07 60.93 64.68 59.91 64.55 C 57.92 64.3 55.94 64.51 54.59 64.44 C 52.38 64.44 50.8 64.44 49.22 64.44 C 47.57 64.44 46.2 64.91 45.06 66.27 C 40.84 71.27 36.56 76.24 32.2 81.13 C 31.17 82.28 30.88 83.44 31.04 84.85 C 31.21 86.32 31.35 87.8 31.85 89.19 C 32.68 91.48 32.77 93.84 32.77 96.25 C 32.77 97.17 32.77 98.08 32.77 99 L 42.57 99 L 42.57 93.25 C 42.57 91.19 42.84 89.21 43.64 87.31 C 44.06 86.32 44.2 85.29 44.28 84.2 C 44.47 81.39 44.01 78.61 44.01 75.81 C 44 71.53 47.32 68.29 51.58 68.28 C 53.24 68.28 54.89 68.28 56.55 68.29 C 57.17 68.29 57.78 68.33 58.39 68.53 C 62.37 69.8 64.34 73.22 63.79 77.74 C 63.35 81.45 63.14 85.15 64.71 88.73 C 65.18 89.81 65.23 91.01 65.23 92.21 C 65.23 94.47 65.23 96.74 65.24 99 L 75.13 99 C 75.13 97.16 75.13 95.33 75.13 93.49 C 75.13 92.64 75.25 91.83 75.5 91.01 C 76.27 88.54 76.94 86.05 76.87 83.43 Z" fill="#fdfdf5"></path>
            <path id="path_2" clip-path="url(#clip_path_2)" d="M 69.97 45.03 C 68.83 45.03 67.69 45.03 66.55 45.03 C 65.66 45.04 65.12 44.67 65.23 43.72 C 65.3 43.03 65.03 42.67 64.43 42.34 C 62.44 41.23 60.48 40.07 58.53 38.89 C 58 38.58 57.48 38.41 56.87 38.43 C 56.02 38.46 55.16 38.54 54.34 38.42 C 51.2 37.99 48.51 39 46 40.78 C 45.16 41.37 44.24 41.85 43.31 42.3 C 42.64 42.64 42.29 43.06 42.4 43.84 C 42.51 44.68 42.15 45.05 41.27 45.03 C 39 45 36.71 45.02 34.44 45.03 C 33.58 45.03 33.16 44.67 33.18 43.76 C 33.22 42.03 33.21 40.3 33.18 38.56 C 33.16 37.64 33.58 37.33 34.46 37.36 C 35.99 37.4 37.54 37.32 39.08 37.39 C 40.04 37.43 40.85 37.2 41.66 36.69 C 43.47 35.58 45.35 34.56 47.16 33.43 C 48.03 32.88 48.91 32.64 49.95 32.66 C 52.78 32.72 55.61 32.69 58.44 32.67 C 59.06 32.67 59.58 32.81 60.11 33.12 C 62.03 34.27 64.03 35.3 65.91 36.53 C 67.06 37.28 68.24 37.45 69.54 37.41 C 70.9 37.36 72.26 37.41 73.62 37.38 C 74.41 37.36 74.76 37.69 74.75 38.49 C 74.72 40.3 74.73 42.1 74.75 43.91 C 74.76 44.72 74.4 45.05 73.62 45.04 C 72.41 45.02 71.19 45.04 69.98 45.04 L 69.98 45.05 L 69.97 45.03 Z" fill="#e0e4d6"></path>
            <path id="path_3" clip-path="url(#clip_path_3)" d="M 73.82 76.08 C 73.82 72.4 73.82 68.83 73.82 65.26 C 73.82 59.54 73.8 53.83 73.85 48.12 C 73.86 47.15 73.58 46.84 72.61 46.88 C 70.78 46.96 68.94 46.93 67.1 46.89 C 66.45 46.88 66.2 47.08 66.2 47.77 C 66.21 54.11 66.21 60.45 66.21 66.79 C 66.21 67.12 66.25 67.43 66.49 67.71 C 68.82 70.46 71.15 73.21 73.48 75.96 C 73.52 76.01 73.6 76.01 73.83 76.08 L 73.82 76.08 Z" fill="#e0e4d6"></path>
            <path id="path_4" clip-path="url(#clip_path_4)" d="M 58.69 29.96 C 58.33 26.38 58.03 22.79 57.71 19.2 C 57.47 16.56 57.65 13.9 57.62 11.25 C 57.59 9.56 56.61 9.14 56.12 9.04 C 55.98 9.01 54.67 9 54.28 9 L 54.17 9 C 53.79 9 52.46 9.01 52.33 9.04 C 51.84 9.14 50.86 9.56 50.83 11.25 C 50.8 13.9 50.97 16.56 50.74 19.2 C 50.43 22.79 50.12 26.38 49.77 29.96 C 49.7 30.7 49.9 30.84 50.42 30.82 C 51.58 30.79 52.99 30.81 54.17 30.81 L 54.28 30.81 C 55.46 30.81 56.88 30.79 58.03 30.82 C 58.55 30.84 58.76 30.7 58.69 29.96 Z" fill="#e0e4d6"></path>
        </g>
    </g>
</svg></svg></g></g></svg></g><g id="dark-icon"><svg xmlns="http://www.w3.org/2000/svg" version="1.1" xmlns:xlink="http://www.w3.org/1999/xlink" xmlns:svgjs="http://svgjs.dev/svgjs" width="1000" height="1000"><g clip-path="url(#SvgjsClipPath1169)"><rect width="1000" height="1000" fill="#9da693"></rect><g transform="matrix(9.25925925925926,0,0,9.25925925925926,0,0)"><svg xmlns="http://www.w3.org/2000/svg" version="1.1" xmlns:xlink="http://www.w3.org/1999/xlink" xmlns:svgjs="http://svgjs.dev/svgjs" width="108" height="108"><svg xmlns="http://www.w3.org/2000/svg" viewBox="0 0 108 108" id="vector">
    <defs>
        <clipPath id="clip_path">
            <path d="M 31 9 L 76.88 9 L 76.88 99 L 31 99 Z"></path>
        </clipPath>
        <clipPath id="clip_path_1">
            <path d="M 31 9 L 76.88 9 L 76.88 99 L 31 99 Z"></path>
        </clipPath>
        <clipPath id="clip_path_2">
            <path d="M 31 9 L 76.88 9 L 76.88 99 L 31 99 Z"></path>
        </clipPath>
        <clipPath id="clip_path_3">
            <path d="M 31 9 L 76.88 9 L 76.88 99 L 31 99 Z"></path>
        </clipPath>
        <clipPath id="clip_path_4">
            <path d="M 31 9 L 76.88 9 L 76.88 99 L 31 99 Z"></path>
        </clipPath>
    <clipPath id="SvgjsClipPath1169"><rect width="1000" height="1000" x="0" y="0" rx="500" ry="500"></rect></clipPath></defs>
    <g id="group_1" transform="translate(20.34 20.34) scale(0.62333333 0.62333333)">
        <g id="group">
            <path id="path" clip-path="url(#clip_path)" d="M 34.12 76.08 C 34.12 72.4 34.12 68.83 34.12 65.26 C 34.12 59.54 34.14 53.83 34.09 48.12 C 34.08 47.15 34.36 46.84 35.33 46.88 C 37.16 46.96 39 46.93 40.84 46.89 C 41.49 46.88 41.74 47.08 41.74 47.77 C 41.73 54.11 41.73 60.45 41.73 66.79 C 41.73 67.12 41.69 67.43 41.45 67.71 C 39.12 70.46 36.79 73.21 34.46 75.96 C 34.42 76.01 34.34 76.01 34.11 76.08 L 34.12 76.08 Z" fill="#e0e4d6"></path>
            <path id="path_1" clip-path="url(#clip_path_1)" d="M 76.87 83.43 C 76.86 82.91 76.77 82.46 76.39 82.03 C 71.73 76.67 67.07 71.3 62.45 65.9 C 61.75 65.07 60.93 64.68 59.91 64.55 C 57.92 64.3 55.94 64.51 54.59 64.44 C 52.38 64.44 50.8 64.44 49.22 64.44 C 47.57 64.44 46.2 64.91 45.06 66.27 C 40.84 71.27 36.56 76.24 32.2 81.13 C 31.17 82.28 30.88 83.44 31.04 84.85 C 31.21 86.32 31.35 87.8 31.85 89.19 C 32.68 91.48 32.77 93.84 32.77 96.25 C 32.77 97.17 32.77 98.08 32.77 99 L 42.57 99 L 42.57 93.25 C 42.57 91.19 42.84 89.21 43.64 87.31 C 44.06 86.32 44.2 85.29 44.28 84.2 C 44.47 81.39 44.01 78.61 44.01 75.81 C 44 71.53 47.32 68.29 51.58 68.28 C 53.24 68.28 54.89 68.28 56.55 68.29 C 57.17 68.29 57.78 68.33 58.39 68.53 C 62.37 69.8 64.34 73.22 63.79 77.74 C 63.35 81.45 63.14 85.15 64.71 88.73 C 65.18 89.81 65.23 91.01 65.23 92.21 C 65.23 94.47 65.23 96.74 65.24 99 L 75.13 99 C 75.13 97.16 75.13 95.33 75.13 93.49 C 75.13 92.64 75.25 91.83 75.5 91.01 C 76.27 88.54 76.94 86.05 76.87 83.43 Z" fill="#fdfdf5"></path>
            <path id="path_2" clip-path="url(#clip_path_2)" d="M 69.97 45.03 C 68.83 45.03 67.69 45.03 66.55 45.03 C 65.66 45.04 65.12 44.67 65.23 43.72 C 65.3 43.03 65.03 42.67 64.43 42.34 C 62.44 41.23 60.48 40.07 58.53 38.89 C 58 38.58 57.48 38.41 56.87 38.43 C 56.02 38.46 55.16 38.54 54.34 38.42 C 51.2 37.99 48.51 39 46 40.78 C 45.16 41.37 44.24 41.85 43.31 42.3 C 42.64 42.64 42.29 43.06 42.4 43.84 C 42.51 44.68 42.15 45.05 41.27 45.03 C 39 45 36.71 45.02 34.44 45.03 C 33.58 45.03 33.16 44.67 33.18 43.76 C 33.22 42.03 33.21 40.3 33.18 38.56 C 33.16 37.64 33.58 37.33 34.46 37.36 C 35.99 37.4 37.54 37.32 39.08 37.39 C 40.04 37.43 40.85 37.2 41.66 36.69 C 43.47 35.58 45.35 34.56 47.16 33.43 C 48.03 32.88 48.91 32.64 49.95 32.66 C 52.78 32.72 55.61 32.69 58.44 32.67 C 59.06 32.67 59.58 32.81 60.11 33.12 C 62.03 34.27 64.03 35.3 65.91 36.53 C 67.06 37.28 68.24 37.45 69.54 37.41 C 70.9 37.36 72.26 37.41 73.62 37.38 C 74.41 37.36 74.76 37.69 74.75 38.49 C 74.72 40.3 74.73 42.1 74.75 43.91 C 74.76 44.72 74.4 45.05 73.62 45.04 C 72.41 45.02 71.19 45.04 69.98 45.04 L 69.98 45.05 L 69.97 45.03 Z" fill="#e0e4d6"></path>
            <path id="path_3" clip-path="url(#clip_path_3)" d="M 73.82 76.08 C 73.82 72.4 73.82 68.83 73.82 65.26 C 73.82 59.54 73.8 53.83 73.85 48.12 C 73.86 47.15 73.58 46.84 72.61 46.88 C 70.78 46.96 68.94 46.93 67.1 46.89 C 66.45 46.88 66.2 47.08 66.2 47.77 C 66.21 54.11 66.21 60.45 66.21 66.79 C 66.21 67.12 66.25 67.43 66.49 67.71 C 68.82 70.46 71.15 73.21 73.48 75.96 C 73.52 76.01 73.6 76.01 73.83 76.08 L 73.82 76.08 Z" fill="#e0e4d6"></path>
            <path id="path_4" clip-path="url(#clip_path_4)" d="M 58.69 29.96 C 58.33 26.38 58.03 22.79 57.71 19.2 C 57.47 16.56 57.65 13.9 57.62 11.25 C 57.59 9.56 56.61 9.14 56.12 9.04 C 55.98 9.01 54.67 9 54.28 9 L 54.17 9 C 53.79 9 52.46 9.01 52.33 9.04 C 51.84 9.14 50.86 9.56 50.83 11.25 C 50.8 13.9 50.97 16.56 50.74 19.2 C 50.43 22.79 50.12 26.38 49.77 29.96 C 49.7 30.7 49.9 30.84 50.42 30.82 C 51.58 30.79 52.99 30.81 54.17 30.81 L 54.28 30.81 C 55.46 30.81 56.88 30.79 58.03 30.82 C 58.55 30.84 58.76 30.7 58.69 29.96 Z" fill="#e0e4d6"></path>
        </g>
    </g>
</svg></svg></g></g></svg></g></svg>